<svg role="img" aria-hidden="true" focusable="false" xmlns="http://www.w3.org/2000/svg" viewBox="0 0 500 500"><rect width="349.36" height="88.01" x="1" y="6.43" fill="#05809e" rx="20" ry="20"/><path fill="#dd324f" d="M478.25 194.22H170.39c-11.41 0-20.75-9.34-20.75-20.75v-47.26c0-11 9-20 20-20h308.61c11.41 0 20.75 9.34 20.75 20.75v46.51c0 11.41-9.34 20.75-20.75 20.75ZM397.18 294H89.31c-11.41 0-20.75-9.34-20.75-20.75v-47.26c0-11 9-20 20-20h308.61c11.41 0 20.75 9.34 20.75 20.75v46.51c0 11.41-9.34 20.75-20.75 20.75Z"/><path fill="#006e8f" d="M21 305.78h308.61c11.45 0 20.75 9.3 20.75 20.75v46.51c0 11.45-9.3 20.75-20.75 20.75H21.75C10.3 393.79 1 384.49 1 373.04v-47.26c0-11.04 8.96-20 20-20Z"/><path fill="#4190a8" d="M21 405.56h308.61c11.45 0 20.75 9.3 20.75 20.75v46.51c0 11.45-9.3 20.75-20.75 20.75H21.75C10.3 493.57 1 484.27 1 472.82v-47.26c0-11.04 8.96-20 20-20Z"/><circle cx="204.27" cy="150.01" r="25.34" fill="#fff"/><circle cx="122.77" cy="250" r="25.34" fill="#fff"/><g fill="#dd324f"><path d="M195.6 161.67c-.77 0-1.54-.29-2.12-.88a3 3 0 0 1 0-4.24l17.33-17.33c1.17-1.17 3.07-1.17 4.24 0s1.17 3.07 0 4.24l-17.33 17.33c-.59.59-1.35.88-2.12.88Z"/><path d="M212.93 161.67c-.77 0-1.54-.29-2.12-.88l-17.33-17.33a3 3 0 0 1 0-4.24 3 3 0 0 1 4.24 0l17.33 17.33a3 3 0 0 1-2.12 5.12Z"/></g><circle cx="122.77" cy="250" r="25.34" fill="#fff"/><g fill="#dd324f"><path d="M114.1 261.67c-.77 0-1.54-.29-2.12-.88a3 3 0 0 1 0-4.24l17.33-17.33a3 3 0 0 1 4.24 0 3 3 0 0 1 0 4.24l-17.33 17.33c-.59.59-1.35.88-2.12.88Z"/><path d="M131.44 261.67c-.77 0-1.54-.29-2.12-.88l-17.33-17.33a3 3 0 0 1 0-4.24 3 3 0 0 1 4.24 0l17.33 17.33a3 3 0 0 1-2.12 5.12Z"/></g><path fill="#fff" d="M294.01 22.39H293.19c-1.45-.04-2.88.03-4.28.22l1.46 10.71c1.03-.14 2.09-.17 3.14-.1l.79-10.78Zm-19.75 7.12c-.14.14-.29.28-.43.42l-.01.01-.01.01-.09.09-.01.01v.01l-.01.01-.01.01-.01.01-.01.01c-.01.02-.03.03-.04.05s0 0-.01.01l-.01.01-.01.01v.02l-.01.01-.01.01c-.02.03-.05.05-.07.08s0 0-.01.01l-.01.01-.01.01-.01.01-.01.01-.01.01s-.07.07-.1.11 0 .01-.01.02l-.01.01-.01.01s0 .01-.01.02-.07.08-.11.13c0 0 0 .01-.01.01s0 .01-.01.02c-.1.12-.2.23-.3.35-.04.04-.07.09-.11.13 0 0 0 .01-.01.02s0 .01-.01.02c0 0 0 .01-.01.02 0 0 0 .01-.01.02s-.07.09-.11.13l-.03.03s0 .01-.01.02 0 .01-.01.02c-.03.03-.05.07-.08.1s0 .01-.01.02l-.01.01-.01.01s0 .01-.01.02-.05.07-.08.1 0 .01-.01.02 0 .01-.01.02l-.01.01-.01.01-.01.01s0 .01-.01.02c-.03.03-.05.07-.08.1s0 .01-.01.02c0 0 0 .01-.01.02l-.01.01-.01.01-.01.01s0 .01-.01.02-.05.07-.08.1l-.01.01-.01.01-.01.01v.01l-.01.01-.01.01c-.02.02-.03.04-.05.07 0 0 0 .01-.01.02l-.01.01-.01.01-.01.01-.01.01s0 .01-.01.02c-.03.03-.05.07-.08.1s0 .01-.01.02 0 .01-.01.02l-.01.01s0 .01-.01.02c-.04.06-.08.11-.12.17l-.44.62 8.94 6.08c.59-.86 1.27-1.67 2.03-2.4l-7.49-7.8Zm-6.03 8.88-.18.45v.02c-.02.05-.04.1-.06.16s0 .01 0 .02V39.27c0 .01 0 .03-.01.04V39.48c0 .02-.01.03-.02.05V39.7c0 .03-.02.06-.03.09v.2c-.02.05-.03.1-.05.15s0 .01 0 .02v.18c-.02.08-.05.17-.07.25s0 .01 0 .02v.08c-.23.8-.41 1.62-.56 2.46l10.64 1.89c.18-1.03.47-2.04.86-3l-10.01-4.07Zm8.93 10.22-10.8.34c.04 1.41.2 2.79.47 4.14V53.25c.07.32.14.64.22.96l10.49-2.6c-.25-1.01-.39-2.05-.43-3.09Zm1.49 6.02-9.72 4.73c.04.09.09.18.13.27v.08c0 .01.01.02.02.04v.11c.02.03.04.07.05.1V60c.22.41.44.82.68 1.22v.04c.03.04.05.09.08.13v.08s0 .02.01.02v.05c.01.02.03.05.04.07s0 .01.01.02 0 .01.01.02c0 0 0 .01.01.02s0 .01.01.02c.44.69.91 1.35 1.41 2l8.52-6.65c-.65-.83-1.2-1.72-1.66-2.66Zm3.84 4.93-6.96 8.27c.45.38.92.75 1.4 1.1.06.05.13.09.19.14.01 0 .02.01.03.02l.02.01s.01 0 .02.01c.03.02.06.04.09.07l.01.01h.05c.03.02.06.04.09.07H277.49v.01h.02c.02.01.04.03.06.04h.09v.01h.03s.01 0 .02.01.05.03.07.05c0 0 .01 0 .02.01h.02s.01 0 .02.01c0 0 .01 0 .02.01a23.656 23.656 0 0 0 1.85 1.08l5.09-9.54c-.92-.49-1.79-1.08-2.59-1.76Zm5.48 2.93-2.98 10.39c.46.13.92.25 1.39.36H286.94c.02 0 .04 0 .07.01H287.5c.06.01.12.02.19.03s.01 0 .02 0H289.02l.79-10.78c-1.04-.08-2.07-.26-3.05-.54Zm9.26-.31c-.98.36-1.99.61-3.02.75l1.49 10.71h.16s.06 0 .08-.01H296.64c.02 0 .05 0 .07-.01H296.87c.03 0 .05-.01.08-.02H297.1c.04 0 .08-.02.11-.03H297.36c.04 0 .08-.02.11-.03h.18c.05-.01.1-.03.15-.04h.14l.21-.06h.08c.7-.19 1.38-.41 2.05-.65l-3.7-10.16Zm5.29-3.32c-.76.73-1.59 1.38-2.48 1.94l5.74 9.16c1.5-.94 2.9-2.03 4.17-3.25l.01-.01h.01l-7.51-7.78Zm3.49-5.16c-.39.96-.88 1.89-1.47 2.76l8.96 6.05c.05-.07.09-.14.14-.21 0-.01.02-.02.02-.03s.02-.02.02-.03.05-.07.07-.11 0-.01.01-.02v-.07s0-.01.01-.02.01-.02.02-.04v-.11h.02v-.09c.01-.02.03-.04.04-.06V61.62a.21.21 0 0 1 .04-.06V61.45c0-.01.02-.03.02-.04v-.05c0-.01.02-.03.02-.04v-.03c0-.01.01-.02.02-.04v-.12s.03-.05.04-.07V60.97c.03-.06.06-.11.09-.17v-.04c.36-.7.69-1.42.99-2.16l-10.03-4.04Zm11.88-6.53-10.8.37c.02.54 0 1.1-.03 1.65-.04.51-.1 1.01-.19 1.51l10.65 1.86s.01-.08.02-.12v-.07c.09-.57.17-1.15.23-1.74s0-.01 0-.02V49.22c.01-.4.01-.8 0-1.2s0-.01 0-.02V47.7Zm-2.61-10.4-9.7 4.76c.46.94.82 1.92 1.07 2.93l10.49-2.63c-.21-.84-.46-1.67-.75-2.47s0-.03-.01-.04c-.02-.06-.04-.12-.07-.18s0-.01 0-.02v-.08s-.03-.08-.04-.12v-.16c-.02-.04-.03-.08-.05-.12s0-.01 0-.02v-.1c-.02-.04-.03-.08-.05-.12V38.26c-.01-.03-.03-.06-.04-.1s0-.01 0-.02V38.02c-.02-.04-.03-.08-.05-.12s-.01-.03-.02-.04 0-.01 0-.02v-.02c-.16-.36-.32-.72-.49-1.07Zm-6.62-8.45-6.94 8.29c.8.67 1.54 1.43 2.19 2.26l8.51-6.67c-.12-.16-.25-.31-.38-.47l-.01-.01-.01-.01c-.03-.04-.06-.08-.1-.12l-.01-.01V31.52c-.02-.02-.03-.04-.05-.06v-.02l-.01-.01-.01-.01v-.02s0-.01-.01-.02l-.01-.01-.01-.01v-.05l-.01-.01-.01-.01c-.01-.02-.03-.03-.04-.05s0-.01-.01-.02l-.01-.01-.01-.01-.01-.01-.01-.01-.01-.01c-.03-.04-.07-.07-.1-.11l-.01-.01-.01-.01s0-.01-.01-.02l-.01-.01c-.45-.49-.92-.97-1.41-1.42s0 0-.01-.01l-.01-.01-.01-.01-.01-.01s-.05-.05-.08-.07 0 0-.01-.01l-.01-.01-.01-.01-.01-.01h-.02l-.01-.01h-.01l-.01-.01-.01-.01c-.2-.18-.4-.35-.6-.52Zm-9.49-5.02-2.95 10.4c1 .28 1.97.67 2.89 1.16l5.06-9.55a25.95 25.95 0 0 0-4.31-1.8h-.08c-.04-.01-.08-.03-.12-.04s-.01 0-.02 0H299.52c-.03 0-.06-.02-.09-.03H299.28ZM294.19 324.08H293.37c-1.45-.06-2.88.01-4.28.19l1.38 10.72c1.03-.13 2.09-.16 3.14-.07l.87-10.77ZM282.41 361.17l-7.02 8.22c.45.38.91.75 1.39 1.11.06.05.12.09.19.14.01 0 .02.01.03.02l.01.01s.01 0 .02.01c.03.02.06.04.09.07l.01.01h.05c.03.02.06.04.09.07H277.33v.01h.02c.02.01.04.03.06.04h.09v.01h.03s.01 0 .02.01.05.03.07.05c0 0 .01 0 .02.01 0 0 .01 0 .02.01s.01 0 .02.01c0 0 .01 0 .02.01 0 0 .01 0 .02.01.59.39 1.2.75 1.82 1.09l5.16-9.5c-.92-.5-1.78-1.09-2.58-1.77ZM287.87 364.14l-3.05 10.37c.46.13.92.26 1.38.37H286.76c.02 0 .04 0 .07.01H287.32c.06.01.12.02.19.03s.01 0 .02 0H288.07c.03 0 .06 0 .08.01H288.83l.87-10.77c-1.04-.08-2.07-.27-3.05-.56ZM297.13 363.89c-.98.35-2 .59-3.03.73l1.41 10.72h.16s.06 0 .08-.01H296.45c.02 0 .05 0 .07-.01H296.68c.03 0 .05-.01.08-.02H296.91c.04 0 .08-.02.11-.02H297.17c.04 0 .08-.02.11-.03h.18c.05-.01.1-.02.15-.04h.14c.07-.02.14-.04.21-.05h.08c.7-.18 1.38-.4 2.05-.64l-3.63-10.18ZM302.45 360.62c-.76.72-1.6 1.37-2.49 1.92l5.67 9.2c1.51-.93 2.91-2.01 4.2-3.22l.01-.01h.01l-7.45-7.83ZM305.97 355.48c-.4.96-.9 1.88-1.49 2.74l8.91 6.11c.05-.07.09-.14.14-.21 0-.01.02-.02.02-.03s.02-.02.02-.03.05-.07.07-.11 0-.01.01-.02v-.07s0-.01.01-.02.02-.02.02-.04v-.11h.02v-.09c.01-.02.03-.04.04-.06V363.44a.21.21 0 0 1 .04-.06V363.27c0-.01.02-.03.03-.04v-.05c0-.01.02-.03.02-.04v-.03c0-.01.01-.02.02-.04v-.12s.03-.05.04-.07V362.79c.03-.06.06-.11.09-.17v-.04c.37-.7.7-1.42 1-2.15l-10-4.11ZM317.89 349.04l-10.81.3c.01.54 0 1.1-.04 1.65-.04.5-.11 1.01-.2 1.5l10.64 1.93s.01-.08.02-.12v-.07c.1-.57.18-1.15.24-1.73s0-.01 0-.02V351.09c.01-.4.02-.8.01-1.2s0-.01 0-.02V349.57ZM315.36 338.61l-9.74 4.69c.45.94.81 1.93 1.05 2.94l10.5-2.55c-.2-.84-.45-1.67-.74-2.48s0-.03-.01-.04l-.06-.18v-.1s-.03-.08-.04-.12v-.16a.612.612 0 0 0-.05-.12s0-.01 0-.02v-.1c-.02-.04-.03-.08-.05-.12v-.15c-.01-.03-.03-.06-.04-.1s0-.01 0-.02V339.86c-.02-.04-.03-.08-.05-.12s-.01-.03-.02-.04 0-.01 0-.02v-.02c-.15-.36-.32-.72-.49-1.07ZM308.8 330.12l-7 8.24c.8.68 1.53 1.44 2.17 2.28l8.55-6.61c-.12-.16-.25-.32-.37-.47l-.01-.01-.01-.01c-.03-.04-.06-.08-.1-.12l-.01-.01V333.35c-.02-.02-.03-.04-.05-.06v-.02l-.01-.01-.01-.01v-.02s0-.01-.01-.02l-.01-.01-.01-.01v-.05l-.01-.01-.01-.01c-.01-.02-.03-.03-.04-.05s0-.01-.01-.02l-.01-.01-.01-.01-.01-.01-.01-.01-.01-.01c-.03-.04-.07-.07-.1-.11l-.01-.01-.01-.01s0-.01-.01-.02l-.01-.01c-.45-.5-.92-.97-1.4-1.43s0-.01-.01-.01l-.01-.01-.01-.01s0-.01-.01-.01-.05-.05-.08-.07 0 0-.01-.01l-.01-.01-.01-.01-.01-.01h-.01l-.01-.01h-.01l-.01-.01-.01-.01c-.2-.18-.4-.35-.6-.53ZM299.35 325.03l-3.02 10.38c1 .29 1.97.69 2.88 1.18l5.13-9.51c-1.36-.73-2.8-1.35-4.3-1.83h-.08c-.04-.01-.08-.03-.12-.04s-.01 0-.02 0H299.7c-.03 0-.06-.02-.09-.03H299.46ZM294.67 423.91H293.85c-1.45-.08-2.88-.04-4.28.11l1.18 10.74c1.03-.11 2.09-.12 3.14-.01l1.07-10.76ZM302.24 460.59c-.77.71-1.62 1.34-2.53 1.87l5.5 9.31c1.52-.9 2.95-1.95 4.26-3.14l.01-.01h.02l-7.31-7.97ZM305.86 455.52c-.41.95-.93 1.87-1.54 2.72l8.8 6.28c.05-.07.1-.14.14-.21 0-.01.02-.02.02-.03s.02-.02.02-.03.05-.07.07-.1 0-.01.01-.02v-.07s0-.01.01-.02.02-.02.02-.04l.01-.01v-.08h.02v-.07c.01-.02.03-.04.04-.06V463.68c.01-.02.03-.04.04-.06V463.51c0-.01.02-.03.03-.04v-.03c0-.01.02-.03.02-.04v-.03c0-.01.01-.02.02-.04v-.12s.03-.05.04-.07V463.05c.03-.06.06-.11.09-.17v-.02s0-.01.01-.02c.38-.69.73-1.4 1.04-2.13l-9.92-4.3ZM317.9 449.3l-10.81.1c0 .54-.02 1.1-.07 1.64-.05.5-.13 1.01-.22 1.5l10.6 2.13s.02-.08.02-.12v-.07c.11-.57.2-1.15.27-1.73s0-.01 0-.02V451.34c.02-.4.03-.8.03-1.2V449.82ZM315.56 438.82l-9.82 4.51c.44.95.77 1.94 1 2.96l10.55-2.36c-.19-.85-.42-1.68-.69-2.49s0-.03-.01-.04l-.06-.18v-.1s-.03-.08-.04-.12v-.16c-.01-.04-.03-.08-.04-.12s0-.01 0-.02v-.1c-.01-.04-.03-.08-.04-.12v-.15c-.01-.03-.03-.07-.04-.1s0-.01 0-.02V440.09c-.02-.04-.03-.08-.05-.12s-.01-.03-.02-.04 0-.01 0-.02v-.02c-.15-.36-.3-.72-.47-1.08ZM309.16 430.21l-7.15 8.11c.79.69 1.5 1.47 2.13 2.32l8.67-6.45-.36-.48-.01-.01-.01-.01-.09-.12-.01-.01V433.5c-.02-.02-.03-.04-.05-.06v-.02l-.01-.01-.01-.01v-.02s0-.01-.01-.02l-.01-.01-.01-.01V433.28l-.01-.01c-.01-.02-.03-.03-.04-.05s0-.01-.01-.02l-.01-.01-.01-.01-.01-.01-.01-.01-.01-.01c-.03-.04-.06-.07-.1-.11 0 0 0-.01-.01-.02l-.01-.01s0-.01-.01-.02c0 0 0-.01-.01-.01-.44-.5-.9-.99-1.38-1.46s0-.01-.01-.01l-.01-.01-.01-.01s0-.01-.01-.01-.05-.05-.08-.07 0 0-.01-.01l-.01-.01-.01-.01-.01-.01h-.01l-.01-.01h-.01l-.01-.01-.01-.01c-.19-.18-.39-.36-.59-.54ZM299.81 424.95l-3.21 10.32c.99.31 1.96.72 2.86 1.23l5.31-9.42a25.51 25.51 0 0 0-4.26-1.91h-.08c-.04-.01-.08-.03-.12-.04s-.01 0-.02 0H300.17c-.03 0-.06-.02-.09-.03H299.93ZM72.15 65.19c3.3 1.28 6.81.83 9.64-.84-6.36 9.56-18.7 13.77-29.84 9.45-12.87-4.99-19.26-19.48-14.27-32.36 5-12.87 19.48-19.26 32.36-14.27C79.71 30.92 85.72 40.03 86 49.79c-1.2-2.33-3.18-4.27-5.82-5.29-5.71-2.22-12.14.62-14.35 6.33-2.22 5.71.62 12.14 6.33 14.35ZM78.56 355.41c3.44-.83 6.07-3.2 7.43-6.19.23 11.48-7.49 21.98-19.11 24.79-13.42 3.25-26.94-5-30.18-18.42-3.25-13.42 5-26.94 18.42-30.18 10.08-2.44 20.22 1.61 26.01 9.47-2.31-1.23-5.05-1.69-7.8-1.02-5.95 1.44-9.61 7.43-8.17 13.39 1.44 5.95 7.43 9.61 13.39 8.17ZM79.27 452.01c3.24-1.42 5.41-4.21 6.24-7.39 2.23 11.26-3.54 22.95-14.49 27.75-12.65 5.54-27.4-.22-32.94-12.87-5.54-12.65.22-27.4 12.87-32.94 9.5-4.16 20.19-1.94 27.27 4.78-2.49-.81-5.27-.78-7.85.35-5.61 2.46-8.17 9-5.71 14.61 2.46 5.61 9 8.17 14.61 5.71Z"/></svg>